<svg viewBox="0 0 1080 253.71" xmlns="http://www.w3.org/2000/svg"><path d="m314.19 147.26c2.55.75 2.32 3.48 2.27 5.6-.34 14.81-25.15 64.16-13.23 76.23 10.73 10.87 32.14-24.17 35.42-32.86 5.3-14.04 6.98-47 12.35-55.91 3.13-5.19 14.66-6.55 20.18-4.55 6.07 4.23-7.79 54.85-8.64 65.1-3.4 40.95 18.21 21.33 31.32 1.56 11.26-16.98 19.12-34.11 17.48-55.19-7.9-.31-18.77 2.99-19.42-7.86-1.14-19.1 20.1-9.62 24.82-15.6l11.24-51.78c2.78-3.86 18.75-5.15 22.86-1.89 3.19 4.48-6.62 32.47-7.56 39.96-.45 3.6-2.08 10.35 3.13 10.19l26.2-2.76-3.47 18.42-31.69 7.25c-3.5 13.02-13.82 60.85-4.71 70.2 5.15 5.29 16.22.13 21.54-3.03 33.21-19.71 11.89-93.19 68.62-102.92 52.11-8.94 56.39 56.97 6.68 73.19-8.25 2.69-33.48 2.39-22.71 15.54s36.46 4.07 47.85-4.41c4.64-3.46 18.33-20.03 22.03-20.03 26.56 12.65-12.99 39.62-26.48 45.34-19.85 8.42-52.79 12.06-65.37-9.47l-2.55-.75c-16.74 19.47-39.83 43.33-66.91 25.59-7.67-7.57-5.82-20.52-17.25-8.16-3.43 3.71-5.2 8.66-8.76 12.25-9.96 10.06-33.21 16.22-43.85 5.38-2.86-2.92-3.32-9.28-6.8-8.89-15.73 9.06-26.46 27.03-48.28 18.43-28.04-11.06-6.31-62.6-3.45-83.17l-20.34-3.43-34.8 82.21c-5.1 4.67-16.92-1.92-18.13-8.32-1.14-6.06 11.86-25.58 15.23-33.08 2.74-6.1 5.97-13.67 8.05-19.95 2.91-8.76 9.67-47.93 11.29-49.98 2.58-3.27 10.92-3.27 14.71-2.11 4.91 1.5 6.02 13.65 16.09 13.65 7.49 0 29.87-1.52 35.01 0zm186.66 20.77c16.05 7.14 53.75-24.17 36.47-39.08-15.16-13.09-41.6 24.1-36.47 39.08z"/><path d="m812.21.22c.9 17.73-2.29 35.3-6.12 52.54-8.24 37.15-39.6 131.41-78.3 144.01-16.75 5.45-32.71 4.59-39.62-13.87l-8.11-21.61c-9.4 22.07-46.06 67.12-70.64 39.1-25.83-29.44.28-108.88 3.8-144.49.21-2.15 2.13-2.5-1.44-4.86-12.47 7.82-37.04 14.67-47.32 24.42-4.55 4.32-9.72 21.85-12.43 22.67-20.43-2.05-17.28-25.45-5.72-37.32 9.61-9.87 73.67-40.69 86.64-41.13 12.88-.44 13.71 4.65 12.75 16.21-2.65 32.15-18.87 68-20.88 103.43-4.43 78.34 26.29 37.24 43.59-1.93 10.97-24.83 13.96-49.6 23.14-73.14 4.97-12.74 18.11-12.36 28.82-6.27l.75 4.15c-7.57 30.83-17 64.53-14.03 96.58 3.3 35.63 25.85 5.17 34.71-9.19 15.47-25.07 29.71-64.51 36.27-93.26 3.88-16.99 5.28-34.19 8.19-51.32 4.5-7.78 18.55-3.8 25.93-4.72z"/><path d="m1002.12 149.01c-7.28 2.06-3.2 10.21.19 13.82 12.01 12.79 33.83 9.68 48.43 3.29 9.23-4.04 27.49-24.02 29.23-.25.63 8.6-9.46 13.14-16.29 16.69-29.57 15.39-65.42 15.29-86.05-13.81-21.28 10.62-68.31 27.71-89.7 13.92-9.98-6.43-6.99-23.37 5.39-22.64 7.42.44 10.9 6.31 22.9 4.61 26.37-3.73 9.75-43.34 1.83-57.69-.74-1.35-.44-4.89-3.45-3.45-2.78 1.33-29.75 43.69-35.18 50.6-8.58 10.91-26.16 31.04-40.22 33.3-47.91 7.7-33.6-40.4-26.15-68.16 1.94-7.22 10.63-38.06 14.06-41.96 5-5.7 15.62-2.97 22.44-3.64 1.67.36 2.05 3.07 2.04 4.46-.04 11.71-12.38 36.61-15.77 49.9-1.71 6.7-8.04 32.17-2.75 36.01 12.21 2.65 22.4-9.27 29.82-17.69 10.41-11.79 21.12-28.78 29.47-42.3 5.1-8.25 20.47-40.92 26.09-43.92 5.42-2.89 23.04-1.4 24.82 4.29 2.17 6.94-5.27 10.08-6.48 14.09-4.48 14.86 30.21 59.95 17.18 81 21.57-4.64 17.26-28.13 24.21-44.92 10.75-25.96 38.3-44.17 66.91-38.32 32.33 6.61 34.53 45.32 10.29 63.01-3.1 2.26-18.77 9.74-21.77 9.74-7.05 0-26.49-1.42-31.51 0zm28.48-53.91c-10.81 1.51-29.42 19.25-29.48 30.32-.07 13.07 28.27 3.89 35.72-1.2 15.77-10.78 12.38-31.7-6.24-29.11z"/><path d="m23.62 49.24-12.32 15.75c-12.48-4.53-14.85-27.27-5.98-35.8 8.94-8.61 45.51-3.43 58.37-2.87 3.38.15 7.05-2.18 12.29-1.52 13.09 1.66 16.05 11.51 14.57 23.12-5.48 43.03-32.96 90.13-21.86 136.55 7 29.26 31.62-10.76 37.23-21.4 12.15-23.04 17.27-48.85 25.56-73.34 34.46-1.69 15.97 33.39 12.59 53.73-2.44 14.66-8.73 62.93 1.1 73.06 1.31 1.35 2.52 2.5 4.54 2.59 14.08 1.4 32.22-37.97 36.67-49.09 13.33-33.32 19.7-68.67 25.21-103.99l22.76.93c-.91 35.69-9.7 72.78-22.08 106.19-8.36 22.57-27.34 69.88-55.62 70.56-30.78.74-37.56-29.74-39.4-54.41-15.44 16.33-25.99 39.64-52.38 25.26-29.68-16.17-20.54-78.39-15.36-106.15 3.72-19.89 10.84-39.04 13.49-59.15h-39.38z"/><path d="m864.25 23.43c7.72 8.18 1.15 30.37-14.38 31.18-37.85 1.98-4.75-51.46 14.38-31.18z"/><path d="m379.3 111.73c-1.9 2.09-9.66 5.52-12.58 5.54-21.22.15-15.36-37.53 6.83-34.72 13.27 1.68 13.11 21.11 5.75 29.18z"/></svg>